<svg id="katman_1" data-name="katman 1" xmlns="http://www.w3.org/2000/svg" viewBox="0 0 531.3 397.88"><defs><style>.cls-1{fill:#fff;}</style></defs><path class="cls-1" d="M200.53,356.76c-93.69,0-148-59.7-148-152.64,0-85.77,44.4-139.85,114.27-153.29l-20.5-38.26C57.42,33.48,0,106.18,0,205.81,0,330.29,81.7,397.88,190.25,397.88c27.88,0,52.12-3.19,71-7.68V348.55A226,226,0,0,1,200.53,356.76Z"/><path class="cls-1" d="M451.89,188.91v-1.13C492.45,173.14,517,141,517,104.42c0-29.85-12-52.38-32-67-14.08-11.24-30.93-18.79-52.49-23.11L412.14,50c33.44,6.23,54.6,24.5,54.6,59.45,0,36.61-30.85,63.65-83.41,63.65H342l-30.39,53.29V393.57c14.68,1.19,32.83,2.06,54.06,2.06,62.84,0,106.26-11.27,133.12-35.49,19.42-18.59,32.56-43.37,32.56-76C531.3,227.78,488.45,197.92,451.89,188.91Zm-72,168.42c-17.71,0-32-.57-41.71-2.26V210.31h41.14c54.27,0,99.41,21.41,99.41,73.23C478.74,338.74,431.32,357.33,379.9,357.33Z"/><polygon class="cls-1" points="196.15 0 384.11 0 289.85 190.16 196.15 0"/></svg>